<svg width="88" height="113" viewBox="0 0 88 113" fill="none" xmlns="http://www.w3.org/2000/svg">
<path d="M33.5528 48.0587C33.5528 48.0587 20.3307 51.9459 17.8405 53.3887C8.81427 58.6347 1.5333 83.4753 1.35701 87.8037C1.18071 92.132 9.51063 99.9636 9.51063 99.9636L20.7186 95.6265C20.7186 95.6265 15.2005 86.8286 16.9855 82.1693C18.8556 77.323 21.0208 72.5961 23.4688 68.015C23.4688 68.015 21.3532 77.0865 21.6309 80.4795C21.9085 83.8724 24.597 99.9769 24.597 99.9769H59.6003C59.6003 99.9769 62.7207 86.8771 62.8309 78.7984C62.9411 70.7197 60.7815 67.0708 60.7815 67.0708C60.7815 67.0708 65.0258 73.6891 66.8945 81.631C67.3352 83.5503 63.7741 92.7056 63.7741 92.7056C63.7741 92.7056 73.6642 89.9701 77.8292 94.7882C80.0531 91.4903 81.1495 87.5598 80.954 83.5856C80.5617 77.0732 68.7544 55.3786 66.8945 54.5579C61.6586 52.2547 53.9501 48.5088 51.5084 48.7382C49.0667 48.9677 33.5528 48.0587 33.5528 48.0587Z" fill="#0064FF"/>
<path d="M43.2093 54.2755H40.512V63.1705H43.2093V54.2755Z" fill="white"/>
<path d="M43.196 63.3955H40.4987C40.4379 63.3955 40.3796 63.3713 40.3367 63.3283C40.2937 63.2852 40.2695 63.2269 40.2695 63.166V54.2755C40.2695 54.2146 40.2937 54.1563 40.3367 54.1133C40.3796 54.0702 40.4379 54.0461 40.4987 54.0461H43.196C43.2259 54.046 43.2555 54.052 43.2831 54.0636C43.3106 54.0752 43.3356 54.0921 43.3565 54.1135C43.3775 54.1349 43.3939 54.1602 43.405 54.188C43.416 54.2158 43.4214 54.2456 43.4208 54.2755V63.166C43.4214 63.1959 43.416 63.2257 43.405 63.2535C43.3939 63.2813 43.3775 63.3066 43.3565 63.328C43.3356 63.3494 43.3106 63.3663 43.2831 63.3779C43.2555 63.3895 43.2259 63.3955 43.196 63.3955ZM40.7235 62.9542H42.9668V54.5005H40.7235V62.9542Z" fill="#231F20"/>
<path d="M11.0929 99.5048H72.8136L83.5059 109.922H0.39624L11.0929 99.5048Z" fill="white"/>
<path d="M83.5056 110.147H0.395982C0.350866 110.146 0.306878 110.133 0.269335 110.108C0.231793 110.083 0.202305 110.047 0.184431 110.006C0.167526 109.964 0.163529 109.918 0.172958 109.874C0.182387 109.83 0.204807 109.79 0.237317 109.759L10.934 99.3415C10.9767 99.3009 11.0337 99.2787 11.0927 99.2798H72.7958C72.8544 99.2801 72.9109 99.3021 72.9544 99.3415L83.6467 109.759C83.6792 109.79 83.7016 109.83 83.711 109.874C83.7205 109.918 83.7165 109.964 83.6996 110.006C83.683 110.045 83.6562 110.078 83.6221 110.103C83.5879 110.128 83.5477 110.143 83.5056 110.147ZM0.95572 109.706H82.9327L72.7252 99.721H11.1852L0.95572 109.706Z" fill="#231F20"/>
<path d="M49.7454 101.662H28.0964L28.6033 100.683H49.4104L49.7454 101.662Z" fill="#E6E7E8"/>
<path d="M54.5227 101.662H51.4948L51.0938 100.683H54.0026L54.5227 101.662Z" fill="#E6E7E8"/>
<path d="M59.0625 101.662H56.0346L55.4573 100.683H58.3705L59.0625 101.662Z" fill="#E6E7E8"/>
<path d="M68.0802 101.662H60.5789L59.8252 100.683H67.0356L68.0802 101.662Z" fill="#E6E7E8"/>
<path d="M68.1507 101.662H65.1228L64.1929 100.683H67.1017L68.1507 101.662Z" fill="#E6E7E8"/>
<path d="M17.1839 101.662H14.1516L15.2006 100.683H18.1094L17.1839 101.662Z" fill="#E6E7E8"/>
<path d="M21.7232 101.662H18.6953L19.568 100.683H22.4768L21.7232 101.662Z" fill="#E6E7E8"/>
<path d="M26.2674 101.662H23.2395L23.9315 100.683H26.8447L26.2674 101.662Z" fill="#E6E7E8"/>
<path d="M23.2086 103.507H12.177L13.3758 102.386H23.9535L23.2086 103.507Z" fill="#E6E7E8"/>
<path d="M27.9599 103.507H24.7117L25.3948 102.386H28.5108L27.9599 103.507Z" fill="#E6E7E8"/>
<path d="M33.0019 103.507H29.7493L30.2253 102.386H33.3369L33.0019 103.507Z" fill="#E6E7E8"/>
<path d="M38.0395 103.507H34.7913L35.0557 102.386H38.1673L38.0395 103.507Z" fill="#E6E7E8"/>
<path d="M43.0815 103.507H39.8289L39.8862 102.386H42.9978L43.0815 103.507Z" fill="#E6E7E8"/>
<path d="M48.1191 103.507H44.8664L44.7122 102.386H47.8282L48.1191 103.507Z" fill="#E6E7E8"/>
<path d="M53.1565 103.507H49.9083L49.5425 102.386H52.6585L53.1565 103.507Z" fill="#E6E7E8"/>
<path d="M58.1986 103.507H54.946L54.373 102.386H57.489L58.1986 103.507Z" fill="#E6E7E8"/>
<path d="M63.2361 103.507H59.9879L59.2034 102.386H62.3194L63.2361 103.507Z" fill="#E6E7E8"/>
<path d="M19.3437 105.642H15.8398L16.9681 104.341H20.3177L19.3437 105.642Z" fill="#E6E7E8"/>
<path d="M24.7822 105.642H21.2739L22.1642 104.341H25.5138L24.7822 105.642Z" fill="#E6E7E8"/>
<path d="M30.2209 105.642H26.7126L27.3561 104.341H30.7057L30.2209 105.642Z" fill="#E6E7E8"/>
<path d="M35.6599 105.642H32.1516L32.5527 104.341H35.9023L35.6599 105.642Z" fill="#E6E7E8"/>
<path d="M41.0939 105.642H37.5901L37.7488 104.341H41.0984L41.0939 105.642Z" fill="#E6E7E8"/>
<path d="M46.5322 105.642H43.0239L42.9402 104.341H46.2942L46.5322 105.642Z" fill="#E6E7E8"/>
<path d="M51.9711 105.642H48.4629L48.1367 104.341H51.4863L51.9711 105.642Z" fill="#E6E7E8"/>
<path d="M57.4098 105.642H53.9016L53.333 104.341H56.6826L57.4098 105.642Z" fill="#E6E7E8"/>
<path d="M62.8441 105.642H59.3403L58.5249 104.341H61.8789L62.8441 105.642Z" fill="#E6E7E8"/>
<path d="M21.0624 108.144H17.2544L18.4091 106.617H22.032L21.0624 108.144Z" fill="#E6E7E8"/>
<path d="M26.9684 108.144H23.1604L24.0287 106.617H27.6515L26.9684 108.144Z" fill="#E6E7E8"/>
<path d="M32.8697 108.144H29.0662L29.6479 106.617H33.2708L32.8697 108.144Z" fill="#E6E7E8"/>
<path d="M38.7755 108.144H34.9675L35.2672 106.617H38.8901L38.7755 108.144Z" fill="#E6E7E8"/>
<path d="M44.6813 108.144H40.8733L40.8865 106.617H44.5094L44.6813 108.144Z" fill="#E6E7E8"/>
<path d="M50.5873 108.144H46.7794L46.5061 106.617H50.129L50.5873 108.144Z" fill="#E6E7E8"/>
<path d="M56.4888 108.144H52.6808L52.1255 106.617H55.7483L56.4888 108.144Z" fill="#E6E7E8"/>
<path d="M62.3947 108.144H58.5867L57.7449 106.617H61.3677L62.3947 108.144Z" fill="#E6E7E8"/>
<path d="M68.3005 108.144H64.4925L63.3643 106.617H66.9871L68.3005 108.144Z" fill="#E6E7E8"/>
<path d="M74.7175 108.144H69.8915L68.5076 106.617H73.1L74.7175 108.144Z" fill="#E6E7E8"/>
<path d="M72.342 105.642H64.7746L63.7212 104.341H70.9493L72.342 105.642Z" fill="#E6E7E8"/>
<path d="M70.0544 103.507H64.7568L63.7783 102.386H68.8556L70.0544 103.507Z" fill="#E6E7E8"/>
<path d="M13.3935 105.642H9.88525L11.278 104.341H14.632L13.3935 105.642Z" fill="#E6E7E8"/>
<path d="M15.1168 108.144H7.20117L8.84071 106.617H16.3729L15.1168 108.144Z" fill="#E6E7E8"/>
<path d="M56.5326 2.21182C63.9942 5.4989 67.2028 14.2615 68.8732 22.2475C69.7547 26.3906 70.9182 31.2175 74.8011 32.8985C79.0013 34.7119 83.6599 31.6455 86.8596 28.3716C84.7221 32.422 82.4523 36.6489 78.6047 39.155C74.6777 41.7317 69.715 42.1023 65.0256 41.8817C62.2137 41.7494 59.3489 41.4096 56.8279 40.161C49.093 36.3136 47.6517 25.8876 41.9751 19.3708C37.2944 13.9968 34.9541 10.3302 41.1509 4.97385C45.2938 1.42204 51.4289 -0.0251513 56.5326 2.21182Z" fill="white"/>
<path d="M67.2603 42.1729C66.4714 42.1729 65.7221 42.1729 65.0302 42.1156C62.421 41.992 59.3932 41.6743 56.7443 40.3507C51.9756 37.999 49.5207 33.0971 47.1627 28.3231C45.629 25.2346 44.0423 22.0622 41.8342 19.5296C39.1898 16.4896 37.0126 13.7364 37.2197 10.842C37.3563 8.85656 38.5728 6.94167 41.0365 4.81059C45.4703 0.980816 51.7376 -0.14429 56.6341 2.01327C62.7339 4.70028 66.8196 11.3053 69.129 22.2078C70.1075 26.8406 71.2886 31.1248 74.9247 32.6956C79.6362 34.734 84.7487 30.2468 86.7276 28.2216C86.7664 28.1826 86.8178 28.1585 86.8727 28.1536C86.9275 28.1488 86.9823 28.1635 87.0273 28.1951C87.0713 28.2278 87.1021 28.2751 87.1142 28.3285C87.1263 28.3819 87.1189 28.4379 87.0934 28.4863C85.0484 32.3602 82.7346 36.7504 78.7635 39.358C75.1936 41.6876 70.817 42.1729 67.2603 42.1729ZM51.2968 1.38232C47.6289 1.41432 44.092 2.7515 41.3186 5.15474C38.9518 7.20199 37.7927 9.01981 37.656 10.8906C37.4665 13.6085 39.5821 16.2823 42.1604 19.2428C44.4081 21.8195 46.008 25.0316 47.555 28.1334C50.0011 33.0397 52.3149 37.6725 56.9471 39.9757C59.521 41.2552 62.4915 41.5552 65.0522 41.6743C68.7985 41.8508 74.2636 41.767 78.4991 38.9873C81.9545 36.7239 84.1449 33.0309 85.9916 29.5453C83.5279 31.7734 79.0103 34.9678 74.7308 33.0971C70.579 31.3013 69.4419 25.8743 68.6707 22.2872C66.3965 11.5347 62.3946 5.03561 56.4402 2.43242C54.8168 1.72992 53.0654 1.37234 51.2968 1.38232Z" fill="#231F20"/>
<path d="M48.15 10.1096C48.8339 10.356 49.4575 10.7456 49.9791 11.2523C50.6005 11.9009 50.8605 12.6598 51.6803 13.229C52.5001 13.7982 53.3154 14.1556 54.1044 14.6674C56.7267 16.3572 58.3002 19.4237 58.547 22.5343C58.6932 24.8336 58.2724 27.1337 57.3217 29.232C56.5857 30.9218 56.167 32.3205 54.7787 33.5956C52.3658 35.7751 49.5194 37.4186 46.4267 38.4181C43.4518 39.4109 39.6041 38.3078 36.7702 37.1783C35.1924 36.5474 33.6233 35.687 32.6713 34.2839C32.5047 33.9957 32.3034 33.729 32.0719 33.4897C31.8589 33.3166 31.6267 33.1686 31.38 33.0485C27.0608 30.6968 26.3732 25.7817 27.788 21.5107C28.546 19.2296 29.379 15.9866 31.4417 14.5527C32.2835 13.9658 33.2311 13.5246 34.0112 12.8584C34.5312 12.4172 34.9676 11.8745 35.4832 11.42C37.6869 9.49189 41.5257 8.55651 44.3597 9.15656C45.6472 9.36913 46.915 9.68789 48.15 10.1096Z" fill="white"/>
<path d="M43.8264 39.0315C41.821 39.0315 39.419 38.4843 36.682 37.3901C35.3995 36.8783 33.5704 36.0135 32.4818 34.4119L32.3628 34.2266C32.1479 33.818 31.7994 33.4955 31.3756 33.3133L31.2742 33.2603C26.5098 30.666 26.3027 25.2743 27.572 21.4489L27.8276 20.6547C28.5372 18.4486 29.4187 15.691 31.3139 14.3762C31.6444 14.1423 31.997 13.935 32.3408 13.7276C32.8757 13.4245 33.3856 13.0793 33.8657 12.6951C34.1258 12.4657 34.377 12.2098 34.615 11.9583C34.853 11.7068 35.0778 11.4774 35.3334 11.2568C37.5371 9.30659 41.442 8.31385 44.4081 8.94479L45.1662 9.09922C46.2164 9.27246 47.2489 9.53974 48.2514 9.89782C48.9669 10.1524 49.6183 10.5605 50.1597 11.0935C50.3895 11.3529 50.6001 11.6287 50.79 11.9186C51.059 12.3532 51.4056 12.7346 51.8125 13.0437C52.2372 13.3357 52.6787 13.6023 53.1347 13.8423C53.4917 14.0409 53.8663 14.2438 54.2189 14.4733C56.762 16.1146 58.5029 19.1987 58.7629 22.5167C58.9121 24.8537 58.4853 27.1915 57.52 29.3247C57.401 29.5982 57.2909 29.8674 57.1807 30.1277C56.6121 31.491 56.1229 32.6647 54.9241 33.7633C52.482 35.9537 49.6083 37.6071 46.4884 38.6167C45.6291 38.8971 44.7302 39.0372 43.8264 39.0315ZM42.5042 9.20952C40.0316 9.20952 37.3211 10.092 35.6375 11.5965C35.3995 11.8083 35.1703 12.0377 34.9499 12.276C34.7296 12.5142 34.4431 12.801 34.1654 13.0393C33.6658 13.4443 33.1336 13.8073 32.5744 14.1247C32.2394 14.3277 31.8912 14.535 31.5695 14.76C29.8065 15.9866 28.9251 18.656 28.264 20.8003C28.1758 21.0783 28.0877 21.343 28.0039 21.5989C26.7875 25.261 26.9726 30.4233 31.4902 32.8676L31.5915 32.9206C31.819 33.031 32.0321 33.1688 32.2262 33.3309C32.4257 33.5236 32.5991 33.7416 32.7418 33.9795L32.8564 34.156C33.6321 35.2943 34.9015 36.19 36.8539 36.9666C40.847 38.5549 44.0423 38.9741 46.3562 38.202C49.4175 37.2088 52.2361 35.5823 54.6288 33.428C55.7483 32.3999 56.2243 31.266 56.7708 29.9512C56.881 29.6909 56.9912 29.4173 57.1146 29.1393C58.0485 27.0752 58.4631 24.8135 58.3222 22.552C58.0666 19.3708 56.405 16.4234 53.9809 14.8571C53.6416 14.6365 53.2758 14.438 52.9232 14.2438C52.4577 13.9933 52.006 13.7179 51.5701 13.4187C51.1236 13.0774 50.7416 12.659 50.4418 12.1833C50.2507 11.9098 50.0385 11.6517 49.8072 11.4112C49.3062 10.9232 48.7044 10.5512 48.0442 10.3214C47.0729 9.97515 46.0729 9.7153 45.056 9.54485L44.2891 9.39042C43.7006 9.26802 43.1009 9.2074 42.4998 9.20952H42.5042Z" fill="#231F20"/>
<path d="M48.0004 48.6897C48.0004 48.6897 44.3775 54.3284 41.8741 54.2755C39.3708 54.2225 36.55 49.0647 36.55 49.0647L36.7087 46.3071L37.0789 39.8962L37.4315 33.9045L47.6963 33.7897L48.0929 38.6828L48.2163 40.2668L48.0004 48.6897Z" fill="white"/>
<path d="M41.8959 54.5005H41.8739C39.2294 54.4432 36.4704 49.3824 36.3558 49.1662C36.3349 49.13 36.3242 49.0889 36.325 49.0471L37.2065 33.8868C37.2087 33.8294 37.2328 33.7751 37.2737 33.7349C37.3147 33.6947 37.3695 33.6717 37.4268 33.6706L47.696 33.5559C47.7538 33.5557 47.8096 33.5775 47.8521 33.6168C47.8946 33.656 47.9207 33.71 47.9252 33.7677L48.4408 40.2492L48.2425 48.6941C48.2416 48.7349 48.2293 48.7746 48.2072 48.8088C48.0442 49.0427 44.5183 54.5005 41.8959 54.5005ZM36.7657 49.0074C37.0786 49.5589 39.6437 53.9975 41.865 54.0461H41.9003C44.1348 54.0461 47.4051 49.1927 47.7753 48.6191L47.9736 40.2359L47.4756 33.9927L37.634 34.103L36.7657 49.0074Z" fill="#231F20"/>
<path d="M48.2029 40.2624C47.3947 41.6677 46.2476 42.8478 44.8666 43.6951C42.6629 45.1246 39.3838 46.7395 36.6953 46.3027L37.0655 39.8918C39.032 40.1513 41.0245 40.1439 42.989 39.8697C44.7167 39.6756 46.5149 39.4638 48.0795 38.6784L48.2029 40.2624Z" fill="#231F20"/>
<path d="M37.6427 46.5939C37.3136 46.5956 36.9849 46.5705 36.6598 46.5189C36.6065 46.5102 36.5583 46.4819 36.5249 46.4394C36.4914 46.3969 36.4751 46.3434 36.4791 46.2895L36.8493 39.8786C36.85 39.8479 36.8574 39.8177 36.8712 39.7902C36.8849 39.7628 36.9045 39.7387 36.9287 39.7198C36.9523 39.7001 36.9799 39.6856 37.0095 39.6773C37.0391 39.6689 37.0701 39.6669 37.1006 39.6712C39.0453 39.939 41.0176 39.939 42.9623 39.6712C44.571 39.4903 46.3913 39.2874 47.9823 38.4976C48.0141 38.4802 48.0497 38.4711 48.0859 38.4711C48.1221 38.4711 48.1577 38.4802 48.1895 38.4976C48.2199 38.5158 48.2456 38.5408 48.2648 38.5707C48.2839 38.6005 48.2958 38.6344 48.2997 38.6697L48.4187 40.258C48.4291 40.2971 48.4291 40.3382 48.4187 40.3772C47.5984 41.8239 46.4246 43.0384 45.0074 43.9069C43.3502 44.9438 40.3796 46.5939 37.6427 46.5939ZM36.9287 46.113C39.7141 46.4616 43.0064 44.6438 44.7473 43.5142C46.0795 42.6995 47.1894 41.5671 47.9779 40.2183L47.8854 39.0138C46.2987 39.7242 44.5578 39.8962 43.0108 40.0904C41.1111 40.353 39.1855 40.3708 37.2813 40.1433L36.9287 46.113Z" fill="#231F20"/>
<path d="M42.9756 41.3345H41.9266C39.5334 41.3604 37.2279 40.4338 35.5171 38.7583C33.8062 37.0828 32.8301 34.7957 32.8034 32.3999C32.7681 29.5452 33.5835 24.1138 33.5835 24.1138C33.5835 24.1138 37.7484 22.6137 41.0187 21.3783C46.5059 19.3134 47.9823 16.3307 47.9823 16.3307C48.1528 18.3046 48.5856 20.247 49.2693 22.1063C49.8599 23.4564 51.7198 25.8699 51.7198 25.8699C51.7198 25.8699 51.8784 30.3262 51.9005 32.1881C51.9156 33.3757 51.6966 34.5545 51.2561 35.6573C50.8155 36.76 50.162 37.7649 49.333 38.6145C48.504 39.4641 47.5158 40.1416 46.4249 40.6084C45.334 41.0751 44.1618 41.3219 42.9756 41.3345Z" fill="white"/>
<path d="M41.8254 41.5728C39.3889 41.573 37.0507 40.6113 35.3179 38.8965C33.5852 37.1817 32.5978 34.8521 32.57 32.4131C32.5391 29.5761 33.3457 24.1447 33.3545 24.0918C33.3595 24.051 33.3758 24.0126 33.4015 23.9806C33.4272 23.9486 33.4613 23.9245 33.4999 23.9109C33.544 23.9109 37.7045 22.3975 40.9307 21.1753C46.2813 19.1634 47.7665 16.2734 47.7798 16.2425C47.7924 16.185 47.8271 16.1347 47.8764 16.1025C47.9257 16.0703 47.9856 16.0587 48.0434 16.0703C48.1011 16.0818 48.1519 16.1156 48.1851 16.1643C48.2182 16.213 48.2309 16.2727 48.2205 16.3307C48.3955 18.2769 48.8237 20.1918 49.4942 22.0269C50.0628 23.3505 51.8962 25.7243 51.9139 25.7463C51.9435 25.7843 51.9605 25.8306 51.9624 25.8787C51.9624 25.9228 52.121 30.3571 52.1431 32.1969C52.1689 34.6528 51.2197 37.0186 49.504 38.7742C47.7883 40.5298 45.4466 41.5316 42.9934 41.5596H41.94L41.8254 41.5728ZM42.9757 41.1051C45.3051 41.0749 47.5278 40.1227 49.1581 38.4568C50.7883 36.7909 51.6936 34.5466 51.6759 32.2146C51.6538 30.5115 51.5172 26.5626 51.4952 25.9802C51.1999 25.5919 49.6132 23.4829 49.0623 22.221C48.4406 20.5494 48.0232 18.8087 47.8194 17.0367C47.101 18.0206 45.2147 20.059 41.0982 21.6165C38.1849 22.7196 34.5136 24.0432 33.7864 24.308C33.663 25.1595 33.0019 29.8673 33.0283 32.422C33.0585 34.7424 34.0004 36.9575 35.6503 38.5877C37.3001 40.2179 39.525 41.1318 41.843 41.1316H41.94L42.9757 41.1051Z" fill="#231F20"/>
<path d="M41.8739 32.1749C41.4882 32.1754 41.1027 32.1548 40.7192 32.1132C40.6286 32.1045 40.5414 32.0744 40.4648 32.0253C40.3881 31.9762 40.3243 31.9095 40.2785 31.8308C39.5909 30.7101 41.4464 25.6184 41.658 25.0449C41.6684 25.0159 41.6844 24.9892 41.7051 24.9665C41.7258 24.9437 41.7508 24.9252 41.7786 24.9121C41.8065 24.899 41.8366 24.8915 41.8673 24.8901C41.898 24.8886 41.9287 24.8932 41.9577 24.9037C41.9866 24.9141 42.0132 24.9301 42.036 24.9508C42.0587 24.9716 42.0772 24.9966 42.0903 25.0244C42.1034 25.0523 42.1109 25.0825 42.1123 25.1132C42.1138 25.144 42.1091 25.1747 42.0987 25.2037C41.323 27.2995 40.2476 30.891 40.6795 31.5925C40.7148 31.6499 40.7413 31.6587 40.7677 31.6587C41.6197 31.7417 42.4782 31.7328 43.3284 31.6322C43.3583 31.6272 43.3889 31.6284 43.4183 31.6355C43.4478 31.6426 43.4754 31.6557 43.4997 31.6738C43.524 31.6919 43.5444 31.7148 43.5596 31.741C43.5749 31.7672 43.5847 31.7963 43.5884 31.8264C43.5959 31.8866 43.5792 31.9474 43.5421 31.9953C43.5049 32.0433 43.4502 32.0746 43.3901 32.0823C42.8871 32.1447 42.3808 32.1756 41.8739 32.1749Z" fill="#231F20"/>
<path d="M46.4889 28.2106C46.8321 28.2068 47.1027 27.5163 47.0934 26.6684C47.0841 25.8204 46.7983 25.1361 46.4551 25.1399C46.112 25.1437 45.8413 25.8341 45.8506 26.6821C45.8599 27.53 46.1457 28.2144 46.4889 28.2106Z" fill="#231F20"/>
<path d="M38.2674 28.0187C38.6106 28.0149 38.8813 27.3245 38.872 26.4765C38.8627 25.6286 38.5769 24.9442 38.2337 24.948C37.8905 24.9518 37.6199 25.6423 37.6292 26.4902C37.6385 27.3382 37.9242 28.0225 38.2674 28.0187Z" fill="#231F20"/>
<path d="M48.2821 46.9998C48.2821 46.9998 52.544 47.3087 52.7776 48.4161C53.0112 49.5236 51.7772 57.6376 50.2522 59.4995C48.7273 61.3615 42.1956 54.2755 42.1956 54.2755L48.2821 46.9998Z" fill="white"/>
<path d="M49.5383 60.0422C47.2244 60.0422 42.2397 54.6638 42.0458 54.4344C42.0089 54.3931 41.9885 54.3397 41.9885 54.2843C41.9885 54.229 42.0089 54.1756 42.0458 54.1343L48.1367 46.8542C48.1587 46.8256 48.1877 46.8033 48.221 46.7893C48.2542 46.7754 48.2905 46.7704 48.3263 46.7748C49.0667 46.8278 52.7689 47.1543 53.0289 48.3676C53.2889 49.581 52.024 57.7302 50.455 59.6451C50.352 59.7695 50.2226 59.8693 50.0762 59.9372C49.9298 60.0052 49.7701 60.0395 49.6088 60.0378L49.5383 60.0422ZM42.4865 54.2711C44.0114 55.8992 47.8547 59.6319 49.5603 59.5657C49.6563 59.569 49.7518 59.5505 49.8396 59.5115C49.9274 59.4726 50.0052 59.4141 50.0672 59.3407C51.5304 57.5758 52.7865 49.5589 52.5485 48.4426C52.4119 47.8117 50.0672 47.3528 48.3747 47.2204L42.4865 54.2711Z" fill="#231F20"/>
<path d="M36.1443 46.7131C36.1443 46.7131 31.8736 46.819 31.5827 47.9132C31.2918 49.0074 32.1469 57.1788 33.5837 59.1069C35.0205 61.035 41.8739 54.2756 41.8739 54.2756L36.1443 46.7131Z" fill="white"/>
<path d="M34.3241 59.6804H34.2095C34.047 59.6747 33.8879 59.6319 33.7444 59.5555C33.6008 59.4791 33.4765 59.3709 33.3809 59.2392C31.9045 57.2537 31.0362 49.0162 31.3447 47.8558C31.6532 46.6954 35.3731 46.5056 36.1179 46.4836C36.1536 46.4847 36.1887 46.4936 36.2206 46.5095C36.2526 46.5255 36.2807 46.5483 36.303 46.5762L42.0326 54.1343C42.0686 54.176 42.0884 54.2292 42.0884 54.2843C42.0884 54.3394 42.0686 54.3927 42.0326 54.4343C41.799 54.6549 36.6732 59.6804 34.3241 59.6804ZM36.0121 46.9424C34.3153 46.9998 31.9485 47.344 31.7811 47.9705C31.4946 49.0735 32.3716 57.1213 33.7467 58.97C33.8056 59.0467 33.8809 59.1091 33.9671 59.1526C34.0533 59.1962 34.1482 59.2197 34.2448 59.2215C35.9328 59.3539 39.9743 55.8021 41.5566 54.249L36.0121 46.9424Z" fill="#231F20"/>
<path d="M37.418 33.9001L47.6827 33.7854C47.6827 33.7854 46.1181 39.2079 42.1955 38.6785C38.273 38.149 37.418 33.9001 37.418 33.9001Z" fill="white"/>
<path d="M42.7244 38.9432C42.5371 38.9428 42.3501 38.9295 42.1646 38.9035C38.1231 38.3564 37.2019 33.9883 37.1931 33.9442C37.1867 33.9109 37.1877 33.8767 37.1961 33.8439C37.2045 33.8111 37.22 33.7805 37.2416 33.7545C37.2623 33.7287 37.2885 33.7078 37.3182 33.6933C37.3479 33.6788 37.3804 33.6711 37.4135 33.6706L47.6826 33.5559C47.7179 33.5561 47.7527 33.5646 47.784 33.5806C47.8154 33.5967 47.8426 33.62 47.8633 33.6486C47.8847 33.6764 47.8994 33.7088 47.9062 33.7432C47.9131 33.7776 47.912 33.8132 47.903 33.8471C47.8854 33.9045 46.3869 38.9432 42.7244 38.9432ZM37.7088 34.1251C37.9776 35.0428 39.0751 38.0254 42.2219 38.4534C45.3688 38.8814 46.9775 35.1134 47.3653 34.0148L37.7088 34.1251Z" fill="#231F20"/>
<path d="M51.1997 24.127H52.2354C52.6589 24.127 53.0781 24.2108 53.4691 24.3736C53.86 24.5363 54.215 24.7748 54.5136 25.0754C54.8122 25.3759 55.0485 25.7326 55.2089 26.1249C55.3693 26.5171 55.4507 26.9373 55.4484 27.3612V33.5382C55.4484 33.9606 55.3653 34.3789 55.2038 34.7691C55.0424 35.1594 54.8057 35.5139 54.5073 35.8126C54.209 36.1113 53.8548 36.3482 53.465 36.5099C53.0752 36.6715 52.6574 36.7547 52.2354 36.7547H51.1997V24.127Z" fill="white"/>
<path d="M52.2356 36.9489H51.1999C51.1698 36.9489 51.14 36.943 51.1122 36.9314C51.0844 36.9199 51.0591 36.903 51.0378 36.8817C51.0165 36.8604 50.9997 36.8351 50.9881 36.8073C50.9766 36.7794 50.9707 36.7496 50.9707 36.7195V24.1271C50.9707 24.097 50.9766 24.0671 50.9881 24.0393C50.9997 24.0115 51.0165 23.9862 51.0378 23.9649C51.0591 23.9436 51.0844 23.9267 51.1122 23.9151C51.14 23.9036 51.1698 23.8977 51.1999 23.8977H52.2356C53.147 23.8988 54.0207 24.2618 54.6652 24.907C55.3096 25.5521 55.6722 26.4268 55.6734 27.3392V33.5162C55.6699 34.4271 55.3063 35.2995 54.6621 35.9427C54.0179 36.586 53.1455 36.9477 52.2356 36.9489ZM51.4291 36.5077H52.2356C53.0274 36.5065 53.7863 36.1908 54.3457 35.6299C54.9052 35.0691 55.2194 34.3088 55.2194 33.5162V27.3612C55.2182 26.5694 54.9035 25.8103 54.3442 25.2504C53.7849 24.6904 53.0266 24.3754 52.2356 24.3742H51.4291V36.5077Z" fill="#231F20"/>
<path d="M33.5835 36.7195H32.5478C32.1244 36.7195 31.7051 36.6357 31.3141 36.473C30.9232 36.3102 30.5682 36.0717 30.2696 35.7712C29.971 35.4706 29.7347 35.1139 29.5743 34.7217C29.4139 34.3294 29.3325 33.9092 29.3348 33.4854V27.3083C29.3348 26.8859 29.4179 26.4676 29.5794 26.0774C29.7408 25.6872 29.9775 25.3326 30.2759 25.0339C30.5742 24.7352 30.9284 24.4983 31.3182 24.3367C31.708 24.175 32.1258 24.0918 32.5478 24.0918H33.5835V36.7195Z" fill="white"/>
<path d="M33.5836 36.9488H32.5479C31.6357 36.9477 30.7613 36.5841 30.1167 35.938C29.4722 35.2919 29.1101 34.4161 29.1101 33.5029V27.3612C29.1113 26.4488 29.4738 25.5741 30.1183 24.929C30.7627 24.2838 31.6365 23.9208 32.5479 23.9197H33.5836C33.6135 23.9197 33.6431 23.9256 33.6706 23.9372C33.6982 23.9488 33.7232 23.9658 33.7441 23.9871C33.765 24.0085 33.7815 24.0338 33.7925 24.0616C33.8036 24.0895 33.8089 24.1192 33.8084 24.1491V36.7415C33.8039 36.798 33.7783 36.8508 33.7366 36.8893C33.6949 36.9277 33.6403 36.949 33.5836 36.9488ZM32.5479 24.3521C32.1543 24.3526 31.7648 24.431 31.4016 24.5827C31.0384 24.7344 30.7087 24.9564 30.4315 25.236C30.1542 25.5156 29.9349 25.8473 29.786 26.212C29.6372 26.5767 29.5617 26.9672 29.5641 27.3612V33.5382C29.5641 34.3308 29.8783 35.0911 30.4377 35.6519C30.9972 36.2128 31.7561 36.5285 32.5479 36.5297H33.3544V24.3521H32.5479Z" fill="#231F20"/>
<path d="M53.884 26.245C53.7086 26.245 53.5405 26.1752 53.4165 26.0511C53.2925 25.927 53.2228 25.7587 53.2228 25.5831V19.6267C53.2228 14.1512 48.5202 9.71251 42.7554 9.71251C36.9905 9.71251 32.2703 14.1688 32.2703 19.6443V25.5964C32.2703 25.7719 32.2006 25.9402 32.0766 26.0643C31.9526 26.1885 31.7845 26.2582 31.6091 26.2582C31.4338 26.2582 31.2657 26.1885 31.1417 26.0643C31.0177 25.9402 30.948 25.7719 30.948 25.5964V19.6267C30.9304 13.4187 36.2281 8.38885 42.7554 8.38885C49.2827 8.38885 54.5627 13.4364 54.5627 19.6443V25.5964C54.561 25.6837 54.542 25.7698 54.5069 25.8497C54.4718 25.9296 54.4213 26.0018 54.3582 26.0621C54.2951 26.1224 54.2207 26.1696 54.1393 26.201C54.0579 26.2323 53.9711 26.2473 53.884 26.245Z" fill="#231F20"/>
<path d="M30.4147 36.115C30.3551 36.115 30.298 36.0913 30.2558 36.0491C30.2136 36.0069 30.19 35.9497 30.19 35.89V27.3348C30.1802 27.3006 30.1785 27.2647 30.185 27.2298C30.1915 27.1949 30.206 27.1619 30.2274 27.1336C30.2487 27.1052 30.2764 27.0822 30.3081 27.0664C30.3399 27.0506 30.3749 27.0423 30.4103 27.0423C30.4458 27.0423 30.4808 27.0506 30.5126 27.0664C30.5443 27.0822 30.5719 27.1052 30.5933 27.1336C30.6147 27.1619 30.6292 27.1949 30.6357 27.2298C30.6421 27.2647 30.6405 27.3006 30.6307 27.3348V35.89C30.6308 35.9482 30.6083 36.0041 30.568 36.0461C30.5278 36.088 30.4728 36.1127 30.4147 36.115Z" fill="#231F20"/>
<path d="M53.8842 36.115C53.8246 36.115 53.7674 36.0913 53.7253 36.0491C53.6831 36.0069 53.6595 35.9497 53.6595 35.89V27.3348C53.6497 27.3006 53.648 27.2647 53.6545 27.2298C53.661 27.1949 53.6755 27.1619 53.6969 27.1336C53.7182 27.1052 53.7459 27.0822 53.7776 27.0664C53.8094 27.0506 53.8444 27.0423 53.8798 27.0423C53.9153 27.0423 53.9503 27.0506 53.982 27.0664C54.0138 27.0822 54.0414 27.1052 54.0628 27.1336C54.0842 27.1619 54.0986 27.1949 54.1051 27.2298C54.1116 27.2647 54.1099 27.3006 54.1002 27.3348V35.89C54.1002 35.9482 54.0778 36.0041 54.0375 36.0461C53.9972 36.088 53.9423 36.1127 53.8842 36.115Z" fill="#231F20"/>
<path d="M19.9163 89.6435C19.1889 88.7375 18.2729 88.0013 17.2322 87.4859C14.6142 86.3211 11.5026 87.4859 9.23722 89.2508C8.17064 90.0759 7.16135 91.0731 6.72503 92.3393C5.9934 94.4881 7.04236 96.8354 8.38219 98.6664C8.91302 99.4691 9.61622 100.143 10.4404 100.639C11.5182 101.153 12.7456 101.26 13.8958 100.939C15.0348 100.611 16.1158 100.108 17.1 99.4474C18.6513 98.4767 21.6528 96.9059 22.3888 95.1278C23.1248 93.3497 20.9608 90.8436 19.9163 89.6435Z" fill="#231F20"/>
<path d="M12.4943 101.345C11.7462 101.355 11.0066 101.184 10.3391 100.846C9.48492 100.335 8.75602 99.6381 8.20596 98.8076C6.98953 97.1442 5.70698 94.6646 6.51794 92.282C6.90138 91.1613 7.72556 90.1465 9.10506 89.0832C11.917 86.9168 14.9889 86.2462 17.3204 87.2874C18.393 87.8095 19.3367 88.5629 20.0838 89.4935C21.4986 91.126 23.3012 93.4954 22.5916 95.2294C21.9349 96.8177 19.6431 98.1899 17.9683 99.2003L17.2146 99.6415C16.211 100.314 15.1092 100.826 13.9488 101.159C13.4733 101.28 12.9849 101.343 12.4943 101.345ZM14.9669 87.2257C13.2039 87.2257 11.2338 87.9801 9.37391 89.4317C8.0517 90.4377 7.28923 91.3908 6.93664 92.4232C6.18298 94.6293 7.40382 96.9722 8.55855 98.5473C9.06961 99.3253 9.74895 99.9783 10.5463 100.458C11.5742 100.951 12.7471 101.05 13.843 100.736C14.9584 100.415 16.0172 99.9224 16.981 99.2753L17.7435 98.812C19.3654 97.8414 21.5867 96.5133 22.1861 95.0573C22.8781 93.3851 20.5245 90.676 19.7488 89.7627C19.0459 88.88 18.1563 88.1643 17.1441 87.6669C16.4632 87.3763 15.729 87.232 14.9889 87.2433L14.9669 87.2257Z" fill="#231F20"/>
<path d="M25.029 97.8193C24.4826 99.0722 23.6143 100.158 22.5124 100.965C20.3088 102.562 18.4444 101.12 16.1085 100.731C16.1085 100.731 12.9881 100.211 11.0797 100.731C9.98231 101.031 9.17136 99.4077 8.77029 98.6532C8.42756 98.0437 8.21775 97.3683 8.1547 96.6717C8.09164 95.9751 8.17677 95.273 8.40448 94.6117C9.28595 92.0526 12.0097 92.0482 14.2883 91.6997C15.9807 91.4393 18.1492 92.1409 18.1492 92.1409C18.1492 92.1409 15.8485 88.492 16.4567 87.8875C17.0649 87.2831 19.4934 87.1904 20.3616 88.0596C21.556 89.2553 21.4591 91.404 22.1995 92.913C22.7945 92.8512 24.2886 92.2732 24.8792 92.4056C25.6196 92.5733 26.413 93.288 26.9683 93.791C28.2615 94.9299 29.2994 96.3298 30.0138 97.8988C30.2801 98.3903 30.4181 98.9412 30.4148 99.5004C30.4064 99.7802 30.3111 100.05 30.142 100.274C29.973 100.497 29.7386 100.661 29.4717 100.745C28.9252 100.864 28.3963 100.52 27.9643 100.167C26.921 99.3015 26.0275 98.2699 25.3199 97.1134C25.223 97.3428 25.126 97.5811 25.029 97.8193Z" fill="white"/>
<path d="M20.3528 101.927C19.5096 101.88 18.678 101.709 17.8847 101.42C17.2915 101.225 16.6865 101.069 16.0733 100.952C15.9454 100.93 12.9661 100.449 11.137 100.952C9.92499 101.278 9.09199 99.7253 8.64244 98.8914L8.57193 98.7591C8.21465 98.122 7.99581 97.4165 7.92973 96.6888C7.86366 95.9612 7.95183 95.2278 8.18849 94.5366C8.98181 92.1717 11.3133 91.8673 13.3715 91.5937C13.6668 91.5584 13.9665 91.5187 14.253 91.4746C15.3889 91.369 16.5346 91.4722 17.6335 91.779C16.8534 90.4818 15.6986 88.3199 16.2804 87.7375C16.6859 87.3315 17.6026 87.1948 18.299 87.2036C18.7397 87.2036 19.8856 87.2918 20.5027 87.9095C21.2739 88.6817 21.534 89.7979 21.7852 90.8789C21.9055 91.4898 22.0826 92.088 22.3141 92.6659C22.5124 92.6306 22.7769 92.5556 23.0545 92.4805C23.7553 92.2908 24.4825 92.0923 24.9144 92.1893C25.6549 92.357 26.4173 93.0232 26.9727 93.513L27.1005 93.6233C28.4111 94.7849 29.4624 96.2102 30.1856 97.8061C30.4718 98.332 30.6161 98.9236 30.6043 99.5224C30.5916 99.8503 30.4768 100.166 30.2761 100.425C30.0754 100.685 29.7988 100.875 29.4849 100.97C28.8193 101.12 28.1935 100.683 27.7836 100.347C26.8352 99.567 26.0066 98.6513 25.3243 97.6296C25.2846 97.731 25.245 97.8325 25.2009 97.9296C24.6426 99.222 23.7494 100.342 22.6138 101.173C21.9611 101.661 21.168 101.926 20.3528 101.927ZM13.2261 100.272C14.2016 100.28 15.1752 100.358 16.1394 100.506C16.7739 100.626 17.3997 100.788 18.0125 100.992C19.5463 101.464 20.8729 101.874 22.3714 100.78C23.4418 99.9974 24.2847 98.9435 24.8131 97.7266C24.91 97.4972 25.0026 97.2854 25.0775 97.0251C25.0895 96.9839 25.1136 96.9471 25.1465 96.9196C25.1795 96.8921 25.2199 96.8751 25.2626 96.8707C25.3063 96.8648 25.3507 96.8717 25.3906 96.8905C25.4304 96.9093 25.4641 96.9391 25.4874 96.9766C26.1863 98.1123 27.0679 99.1245 28.0965 99.9724C28.4668 100.272 28.9472 100.608 29.4188 100.506C29.6376 100.433 29.8283 100.293 29.9648 100.107C30.1013 99.9202 30.1769 99.6961 30.1812 99.465C30.1822 98.9445 30.0535 98.4319 29.8066 97.9737C29.1026 96.4355 28.083 95.0629 26.814 93.9454L26.6862 93.8307C26.1661 93.3895 25.4565 92.7541 24.8263 92.6129C24.2675 92.6151 23.7131 92.7121 23.1867 92.8997C22.8701 92.9951 22.5477 93.0703 22.2215 93.1247C22.1748 93.1295 22.1278 93.1197 22.0868 93.0968C22.0458 93.074 22.0129 93.039 21.9923 92.9968C21.7039 92.3452 21.491 91.6628 21.3577 90.9628C21.1065 89.895 20.8729 88.889 20.1986 88.214C19.6558 87.8015 18.9837 87.5965 18.3034 87.636C17.5497 87.636 16.8578 87.7904 16.6154 88.0375C16.373 88.2846 17.1663 90.1509 18.3386 92.0084C18.3644 92.047 18.3782 92.0923 18.3782 92.1386C18.3782 92.185 18.3644 92.2303 18.3386 92.2688C18.3099 92.306 18.2702 92.3333 18.2251 92.3467C18.18 92.3602 18.1319 92.3591 18.0874 92.3438C18.0874 92.3438 15.9498 91.6687 14.3323 91.9026L13.4509 92.0261C11.4323 92.2908 9.34762 92.5644 8.64244 94.6734C8.42491 95.3052 8.34385 95.9761 8.40463 96.6416C8.46542 97.3072 8.66665 97.9522 8.99503 98.5341L9.06555 98.6664C9.4534 99.39 10.1806 100.74 11.04 100.502C11.7562 100.333 12.4907 100.256 13.2261 100.272Z" fill="#231F20"/>
<path d="M16.1394 91.3069C16.1394 91.3069 16.5052 100.612 16.0644 101.605C15.6237 102.598 14.2706 102.642 13.6845 102.209C13.0983 101.777 12.6575 97.0737 12.6575 97.0737C12.6575 97.0737 12.4151 101.371 12.0934 101.98C11.4411 103.215 9.76632 103.193 9.54595 98.9797C9.54595 98.9797 9.54595 102.258 8.48377 102.258C7.4216 102.258 7.29379 101.376 7.18801 99.9151C7.08223 98.4547 6.8839 95.9706 8.51022 93.8837C10.1365 91.7967 15.6281 91.0466 16.1394 91.3069Z" fill="white"/>
<path d="M11.1457 102.933C11.0729 102.933 11.0004 102.924 10.9297 102.907C10.5375 102.823 9.93806 102.439 9.58547 100.992C9.41358 101.786 9.09184 102.501 8.48363 102.501C7.16142 102.501 7.06445 101.371 6.95868 99.946C6.84409 98.415 6.65898 95.9045 8.31174 93.769C9.87635 91.7438 15.5266 90.7555 16.245 91.1217C16.2808 91.1403 16.3111 91.1681 16.3328 91.2022C16.3544 91.2362 16.3667 91.2755 16.3684 91.3158C16.4037 92.2733 16.721 100.701 16.2714 101.715C16.1662 101.946 16.0099 102.15 15.8145 102.311C15.619 102.472 15.3894 102.587 15.1432 102.646C14.8754 102.721 14.595 102.738 14.3201 102.697C14.0452 102.656 13.782 102.558 13.5477 102.408C13.1907 102.143 12.9086 100.789 12.7147 99.4784C12.6089 100.617 12.4679 101.795 12.274 102.126C12.1746 102.349 12.0177 102.541 11.8194 102.683C11.621 102.825 11.3885 102.911 11.1457 102.933ZM9.5458 98.768C9.60365 98.7678 9.65942 98.7896 9.70193 98.8288C9.74444 98.8681 9.77053 98.922 9.77498 98.9798C9.89839 101.371 10.5066 102.346 11.0311 102.465C11.3396 102.532 11.6702 102.311 11.9126 101.887C12.155 101.464 12.3533 98.7151 12.4547 97.0737C12.4683 97.0258 12.4973 96.9836 12.537 96.9536C12.5768 96.9235 12.6252 96.9073 12.675 96.9073C12.7248 96.9073 12.7733 96.9235 12.8131 96.9536C12.8528 96.9836 12.8817 97.0258 12.8954 97.0737C13.1025 99.2798 13.5168 101.804 13.8298 102.033C14.0085 102.143 14.2083 102.215 14.4163 102.243C14.6243 102.271 14.8359 102.255 15.0374 102.196C15.2178 102.155 15.3863 102.072 15.53 101.955C15.6736 101.838 15.7885 101.69 15.866 101.521C16.1657 100.837 16.0687 95.2206 15.9277 91.5011C15.0065 91.4261 10.1232 92.1718 8.68196 94.0426C7.13497 96.0501 7.31127 98.4547 7.42145 99.8931C7.54045 101.499 7.65504 102.055 8.49244 102.055C9.06099 102.055 9.32984 100.233 9.32984 99.0018C9.32926 98.9725 9.33452 98.9433 9.34533 98.9161C9.35615 98.8888 9.37228 98.8639 9.39281 98.843C9.41333 98.822 9.43782 98.8054 9.46485 98.794C9.49187 98.7827 9.5209 98.7768 9.55021 98.7768L9.5458 98.768Z" fill="#231F20"/>
<path d="M17.8848 99.7209H17.8319C17.8025 99.7148 17.7747 99.7027 17.7502 99.6854C17.7256 99.6681 17.7049 99.6459 17.6892 99.6203C17.6735 99.5947 17.6632 99.5661 17.659 99.5364C17.6547 99.5067 17.6566 99.4764 17.6644 99.4474C17.8822 98.4467 18.3557 97.5197 19.0386 96.7571C19.7215 95.9946 20.5905 95.4225 21.5605 95.097C21.6169 95.0871 21.6749 95.0986 21.7232 95.1294C21.7715 95.1601 21.8065 95.2078 21.8214 95.2631C21.8363 95.3184 21.8301 95.3773 21.8038 95.4282C21.7775 95.4791 21.7332 95.5184 21.6795 95.5382C20.7875 95.8404 19.9891 96.3693 19.3625 97.0731C18.736 97.7769 18.3027 98.6315 18.1051 99.5533C18.0917 99.6014 18.0629 99.6439 18.0231 99.6742C17.9833 99.7044 17.9347 99.7209 17.8848 99.7209Z" fill="#231F20"/>
<path d="M19.0612 87.4772C17.4085 86.9256 16.3771 87.0359 15.4296 88.1963C15.0877 88.6608 14.8378 89.1865 14.6935 89.745C14.1705 91.4591 13.9366 93.2485 14.0016 95.0396C13.9859 95.379 14.0588 95.7166 14.2131 96.0191C14.382 96.2571 14.6217 96.4355 14.8979 96.529C15.1741 96.6225 15.4728 96.6263 15.7513 96.5398C16.306 96.3522 16.7873 95.994 17.1264 95.5161C18.2415 94.0998 18.6249 92.26 18.9731 90.4907" fill="white"/>
<path d="M15.346 96.8133C15.085 96.8223 14.8262 96.7636 14.5946 96.643C14.3629 96.5225 14.1663 96.344 14.0238 96.125C13.8546 95.7889 13.7713 95.4159 13.7813 95.0396C13.715 93.2258 13.9534 91.4137 14.4865 89.6788C14.6384 89.0927 14.9018 88.5414 15.2622 88.0551C16.3729 86.6918 17.6158 86.7315 19.1407 87.261C19.1979 87.281 19.2448 87.3229 19.2712 87.3774C19.2977 87.432 19.3014 87.4948 19.2817 87.5522C19.2723 87.5803 19.2574 87.6064 19.2378 87.6287C19.2183 87.6511 19.1945 87.6694 19.1679 87.6825C19.1413 87.6957 19.1123 87.7034 19.0827 87.7052C19.053 87.7071 19.0233 87.703 18.9953 87.6933C17.3381 87.1418 16.4522 87.3095 15.6148 88.3419C15.2921 88.7833 15.0559 89.2818 14.9184 89.8112C14.4039 91.4982 14.1731 93.2592 14.2353 95.022C14.2237 95.3264 14.2857 95.6291 14.416 95.9044C14.5604 96.0983 14.7614 96.2423 14.9912 96.3166C15.221 96.3909 15.4682 96.3918 15.6986 96.3192C16.2094 96.1486 16.6515 95.8174 16.9591 95.375C18.0653 93.9719 18.4311 92.0967 18.7573 90.4465C18.77 90.3874 18.8051 90.3356 18.8553 90.3019C18.9054 90.2681 18.9666 90.2552 19.0261 90.2657C19.0555 90.2714 19.0834 90.283 19.1083 90.2997C19.1332 90.3165 19.1544 90.338 19.1708 90.3631C19.1873 90.3882 19.1985 90.4163 19.2039 90.4457C19.2094 90.4752 19.2088 90.5055 19.2024 90.5348C18.8674 92.2379 18.4884 94.166 17.3161 95.6573C16.9503 96.1771 16.4261 96.5642 15.822 96.7604C15.6663 96.7987 15.5063 96.8165 15.346 96.8133Z" fill="#231F20"/>
<path d="M65.0036 89.6435C65.732 88.7385 66.6477 88.0024 67.6877 87.4859C70.3101 86.3211 73.4173 87.4859 75.6827 89.2508C76.7536 90.0759 77.7585 91.0731 78.1949 92.3393C78.9265 94.4881 77.8775 96.8354 76.5377 98.6664C76.0081 99.4701 75.3047 100.144 74.4794 100.639C73.4018 101.154 72.1742 101.26 71.0241 100.939C69.8862 100.612 68.8065 100.109 67.8243 99.4474C66.2685 98.4767 63.2671 96.9059 62.5355 95.1278C61.8039 93.3497 63.9635 90.8436 65.0036 89.6435Z" fill="#231F20"/>
<path d="M72.4301 101.345C71.9383 101.344 71.4484 101.283 70.9712 101.164C69.8111 100.829 68.7095 100.317 67.7054 99.646L66.9561 99.2048C65.2813 98.1988 62.9895 96.8266 62.3328 95.2338C61.6188 93.5086 63.4214 91.1393 64.8406 89.498C65.5862 88.5676 66.5285 87.8142 67.5996 87.2919C69.9355 86.2506 73.0074 86.9213 75.8193 89.0876C77.1988 90.151 78.023 91.1658 78.4021 92.2865C79.2174 94.669 77.9349 97.1399 76.714 98.8121C76.1654 99.6437 75.4362 100.34 74.5809 100.851C73.9144 101.187 73.1764 101.356 72.4301 101.345ZM69.9576 87.2257C69.1999 87.213 68.4484 87.3635 67.7539 87.6669C66.7417 88.1643 65.8521 88.8801 65.1491 89.7627C64.3778 90.6451 62.0243 93.363 62.7163 95.0573C63.3157 96.5133 65.537 97.8414 67.1589 98.8121L67.9169 99.2754C68.8808 99.9224 69.9395 100.415 71.055 100.736C72.1523 101.05 73.3266 100.951 74.3561 100.458C75.1525 99.9786 75.8304 99.3255 76.3394 98.5473C77.4986 96.9722 78.7194 94.6249 77.9657 92.4232C77.6132 91.3908 76.8374 90.4378 75.5285 89.4318C73.6862 87.9978 71.7161 87.2434 69.9576 87.2434V87.2257Z" fill="#231F20"/>
<path d="M59.8912 97.8193C60.4376 99.0722 61.3059 100.158 62.4078 100.965C64.6114 102.562 66.4758 101.12 68.8117 100.731C68.8117 100.731 71.9365 100.211 73.8449 100.731C74.9379 101.031 75.7488 99.4077 76.1499 98.6532C76.4945 98.0444 76.7054 97.3689 76.7685 96.672C76.8316 95.975 76.7454 95.2726 76.5157 94.6117C75.6343 92.0526 72.9149 92.0482 70.6319 91.6997C68.9395 91.4393 66.7711 92.1409 66.7711 92.1409C66.7711 92.1409 69.0717 88.492 68.4635 87.8875C67.8553 87.2831 65.4268 87.1904 64.5586 88.0596C63.3642 89.2553 63.4655 91.404 62.7207 92.913C62.1257 92.8512 60.6316 92.2732 60.041 92.4056C59.3006 92.5733 58.5117 93.288 57.9519 93.791C56.6587 94.9299 55.6208 96.3298 54.9064 97.8988C54.6394 98.3898 54.5028 98.9413 54.5098 99.5004C54.5146 99.7806 54.608 100.052 54.7767 100.276C54.9454 100.499 55.1807 100.663 55.4485 100.745C55.9951 100.864 56.5283 100.52 56.9603 100.167C58.0013 99.2991 58.8944 98.2679 59.6047 97.1134C59.6875 97.3537 59.7832 97.5893 59.8912 97.8193Z" fill="white"/>
<path d="M64.5674 101.927C63.7384 101.926 62.9329 101.652 62.2755 101.146C61.1388 100.315 60.2441 99.1958 59.684 97.9032C59.6399 97.8061 59.6003 97.7091 59.5606 97.6032C58.8786 98.6238 58.0516 99.5394 57.1057 100.321C56.6914 100.656 56.0656 101.089 55.4001 100.943C55.0861 100.849 54.8095 100.659 54.6088 100.399C54.4081 100.14 54.2934 99.8239 54.2806 99.496C54.2726 98.8976 54.4166 98.307 54.6993 97.7797C55.4241 96.1848 56.4752 94.7598 57.7844 93.5969L57.9123 93.4866C58.472 92.9969 59.2345 92.3306 59.9749 92.163C60.4156 92.0659 61.1296 92.2644 61.8348 92.4542C62.1081 92.5292 62.3725 92.6042 62.5708 92.6395C62.8023 92.0616 62.9794 91.4634 63.0997 90.8525C63.3554 89.7716 63.6154 88.6465 64.3823 87.8832C65.3078 86.9566 67.8729 86.9742 68.6089 87.7111C69.1907 88.2935 68.0316 90.4555 67.2515 91.7526C68.3574 91.4512 69.5091 91.3555 70.6495 91.4703C70.9434 91.5144 71.2372 91.5541 71.531 91.5894C73.5848 91.8629 75.9384 92.1674 76.7097 94.5323C76.9485 95.2231 77.0379 95.9568 76.9718 96.6848C76.9057 97.4128 76.6856 98.1184 76.3262 98.7548L76.2601 98.8871C75.8194 99.721 74.9776 101.274 73.7611 100.948C71.9233 100.445 68.8557 100.948 68.8249 100.948C68.2118 101.065 67.6068 101.221 67.0135 101.415C66.2275 101.705 65.4034 101.877 64.5674 101.927ZM59.6223 96.8619H59.6488C59.6919 96.8666 59.7327 96.8837 59.7663 96.9111C59.7999 96.9385 59.8249 96.9751 59.8383 97.0164C59.9118 97.2555 60.0002 97.4898 60.1027 97.7179C60.6296 98.9357 61.4727 99.9899 62.5444 100.771C64.0385 101.861 65.3651 101.451 66.9033 100.983C67.5144 100.779 68.1388 100.617 68.772 100.498C68.9042 100.476 71.9673 99.9725 73.9022 100.498C74.7836 100.736 75.4888 99.3857 75.8811 98.6621L75.9516 98.5297C76.2782 97.9472 76.478 97.302 76.538 96.6367C76.5981 95.9713 76.5168 95.3008 76.2998 94.6691C75.599 92.5733 73.5099 92.2997 71.4913 92.0218L70.6099 91.8982C68.9924 91.6467 66.8768 92.3174 66.8548 92.3395C66.8103 92.3542 66.7623 92.3549 66.7174 92.3415C66.6725 92.3281 66.6328 92.3012 66.6036 92.2645C66.5766 92.2264 66.5622 92.1809 66.5622 92.1343C66.5622 92.0877 66.5766 92.0422 66.6036 92.0041C67.7759 90.1422 68.5825 88.2847 68.3268 88.0332C67.8068 87.5125 65.5282 87.4199 64.7437 88.2097C64.0649 88.8847 63.8313 89.8907 63.5845 90.954C63.4504 91.6558 63.236 92.3398 62.9455 92.9925C62.9262 93.0348 62.8942 93.0699 62.8538 93.0929C62.8134 93.1159 62.7668 93.1255 62.7207 93.1204C62.393 93.0665 62.0691 92.9913 61.7511 92.8954C61.2255 92.7103 60.673 92.6134 60.1159 92.6086C59.4857 92.7498 58.7717 93.3719 58.2516 93.8264L58.1238 93.9411C56.842 95.0498 55.81 96.4183 55.096 97.9562C54.8459 98.4133 54.7156 98.9263 54.7169 99.4475C54.7231 99.6781 54.7994 99.9013 54.9357 100.087C55.0719 100.273 55.2616 100.413 55.4794 100.489C55.951 100.59 56.4314 100.255 56.8016 99.9549C57.8316 99.1071 58.7147 98.0949 59.4152 96.959C59.4381 96.9262 59.4694 96.9003 59.5059 96.8839C59.5424 96.8676 59.5826 96.8615 59.6223 96.8664V96.8619Z" fill="#231F20"/>
<path d="M68.7807 91.3069C68.7807 91.3069 68.4193 100.612 68.8556 101.605C69.2919 102.598 70.6538 102.642 71.2356 102.209C71.8173 101.777 72.2845 97.0737 72.2845 97.0737C72.2845 97.0737 72.5269 101.371 72.8487 101.98C73.5054 103.215 75.1757 103.193 75.3961 98.9797C75.3961 98.9797 75.3961 102.258 76.4583 102.258C77.5205 102.258 77.6483 101.376 77.7585 99.9151C77.8687 98.4547 78.0626 95.9706 76.4363 93.8837C74.8099 91.7967 69.2919 91.0466 68.7807 91.3069Z" fill="white"/>
<path d="M73.779 102.933C73.5293 102.913 73.2899 102.825 73.0871 102.678C72.8842 102.53 72.7256 102.33 72.6286 102.099C72.3862 101.236 72.2457 100.348 72.2099 99.4519C72.016 100.776 71.734 102.099 71.3725 102.382C71.1387 102.532 70.8755 102.631 70.6004 102.672C70.3254 102.714 70.0447 102.696 69.7771 102.62C69.5311 102.56 69.3018 102.445 69.1064 102.284C68.911 102.123 68.7546 101.919 68.6488 101.689C68.2081 100.674 68.5166 92.2468 68.5518 91.2893C68.5544 91.2486 68.5675 91.2093 68.5899 91.1752C68.6123 91.1412 68.6433 91.1136 68.6797 91.0952C69.3936 90.729 75.0439 91.7173 76.6129 93.7425C78.2701 95.8868 78.0806 98.4018 77.9704 99.9196C77.8602 101.437 77.7764 102.501 76.441 102.501C75.8328 102.501 75.5111 101.786 75.3436 100.992C74.9866 102.439 74.3872 102.823 73.9949 102.907C73.9243 102.924 73.8518 102.933 73.779 102.933ZM72.2849 96.8575C72.3422 96.8586 72.397 96.8816 72.438 96.9218C72.4789 96.962 72.503 97.0163 72.5052 97.0737C72.5978 98.715 72.827 101.486 73.0474 101.887C73.2677 102.289 73.6071 102.532 73.9288 102.465C74.4533 102.346 75.0571 101.371 75.1849 98.9798C75.1883 98.9224 75.2135 98.8685 75.2553 98.8291C75.2971 98.7898 75.3523 98.7679 75.4097 98.768C75.4693 98.768 75.5265 98.7917 75.5686 98.8339C75.6108 98.8761 75.6345 98.9333 75.6345 98.993C75.6345 100.224 75.8989 102.046 76.4675 102.046C77.3049 102.046 77.4239 101.49 77.5385 99.9107C77.6486 98.4459 77.8293 96.0413 76.2779 94.0337C74.8367 92.163 69.9666 91.4129 69.0322 91.4923C68.8912 95.2118 68.7942 100.828 69.0983 101.512C69.1755 101.681 69.2903 101.83 69.434 101.947C69.5777 102.064 69.7464 102.146 69.9269 102.187C70.1286 102.245 70.34 102.26 70.5477 102.232C70.7555 102.204 70.9553 102.133 71.1346 102.024C71.4431 101.795 71.8618 99.271 72.0689 97.0649C72.0732 97.0098 72.0976 96.9582 72.1374 96.92C72.1772 96.8817 72.2297 96.8595 72.2849 96.8575Z" fill="#231F20"/>
<path d="M67.0354 99.721C66.9843 99.7204 66.9348 99.7027 66.8949 99.6707C66.8549 99.6387 66.8268 99.5943 66.815 99.5445C66.6175 98.6227 66.1842 97.7681 65.5576 97.0643C64.9311 96.3604 64.1327 95.8316 63.2407 95.5294C63.1852 95.5105 63.139 95.4711 63.1117 95.4191C63.0843 95.3672 63.0779 95.3068 63.0937 95.2503C63.1095 95.1938 63.1463 95.1455 63.1966 95.1153C63.2469 95.0851 63.3069 95.0754 63.3641 95.0882C64.3335 95.414 65.2018 95.9862 65.8839 96.7488C66.5661 97.5114 67.0388 98.4382 67.2558 99.4386C67.2636 99.4676 67.2655 99.4979 67.2612 99.5276C67.2569 99.5573 67.2466 99.5859 67.231 99.6115C67.2153 99.6371 67.1945 99.6592 67.17 99.6766C67.1455 99.6939 67.1177 99.706 67.0883 99.7121L67.0354 99.721Z" fill="#231F20"/>
<path d="M65.863 87.4772C67.5158 86.9256 68.5471 87.0359 69.4903 88.1963C69.8339 88.6598 70.0839 89.1858 70.2263 89.745C70.7508 91.4589 70.9861 93.2483 70.9227 95.0396C70.9341 95.3786 70.8614 95.7152 70.7111 96.0191C70.5415 96.2574 70.3011 96.4361 70.0241 96.5295C69.7471 96.623 69.4477 96.6266 69.1686 96.5398C68.6144 96.3512 68.1334 95.9931 67.7935 95.5161C66.6784 94.0998 66.2994 92.26 65.9512 90.4907" fill="white"/>
<path d="M69.5786 96.8133C69.4209 96.8135 69.2638 96.7927 69.1114 96.7516C68.5061 96.5577 67.9812 96.1701 67.6174 95.6485C66.4406 94.1572 66.0616 92.2291 65.7266 90.526C65.7161 90.4664 65.7291 90.4051 65.7628 90.3549C65.7965 90.3048 65.8483 90.2696 65.9073 90.2568C65.9365 90.2511 65.9666 90.2512 65.9958 90.2572C66.025 90.2633 66.0527 90.275 66.0773 90.2918C66.102 90.3087 66.123 90.3303 66.1392 90.3553C66.1554 90.3803 66.1665 90.4084 66.1717 90.4377C66.4979 92.0879 66.8681 93.9675 67.9744 95.3661C68.2803 95.8083 68.721 96.1395 69.2305 96.3103C69.4615 96.3827 69.7092 96.3816 69.9397 96.3074C70.1701 96.2331 70.3719 96.0893 70.5174 95.8956C70.6484 95.6206 70.709 95.3174 70.6937 95.0132C70.7584 93.2502 70.5275 91.4889 70.0106 89.8024C69.8731 89.273 69.6369 88.7745 69.3142 88.3331C68.4768 87.3007 67.5909 87.133 65.9337 87.6845C65.9057 87.6942 65.876 87.6983 65.8463 87.6964C65.8167 87.6945 65.7877 87.6868 65.7611 87.6737C65.7345 87.6606 65.7107 87.6423 65.6912 87.6199C65.6716 87.5975 65.6567 87.5715 65.6473 87.5433C65.6376 87.5146 65.6337 87.4843 65.6358 87.4542C65.6379 87.424 65.6459 87.3945 65.6594 87.3674C65.673 87.3404 65.6917 87.3162 65.7146 87.2964C65.7374 87.2767 65.764 87.2616 65.7927 87.2521C67.3177 86.7447 68.5605 86.6829 69.6668 88.0463C70.0303 88.5313 70.2953 89.083 70.4469 89.67C70.9765 91.4055 71.2133 93.2173 71.1477 95.0308C71.1638 95.4077 71.0802 95.7821 70.9053 96.1162C70.764 96.3381 70.5673 96.5192 70.3346 96.6415C70.1019 96.7637 69.8413 96.823 69.5786 96.8133Z" fill="#231F20"/>
<path d="M82.8844 112.697H1.01768L0.39624 109.922H83.5059L82.8844 112.697Z" fill="white"/>
<path d="M82.8844 112.927H1.01765C0.966304 112.927 0.916438 112.909 0.876346 112.877C0.836254 112.845 0.808352 112.8 0.797279 112.75L0.171431 109.971C0.165448 109.937 0.166269 109.902 0.173838 109.869C0.181408 109.836 0.195577 109.804 0.215507 109.776C0.237594 109.75 0.265245 109.729 0.296484 109.714C0.327723 109.7 0.361777 109.692 0.396207 109.693H83.5058C83.5403 109.692 83.5743 109.7 83.6056 109.714C83.6368 109.729 83.6645 109.75 83.6865 109.776C83.7074 109.804 83.7222 109.835 83.7298 109.869C83.7374 109.902 83.7377 109.937 83.7306 109.971L83.1048 112.75C83.0937 112.8 83.0658 112.845 83.0257 112.877C82.9856 112.909 82.9357 112.927 82.8844 112.927ZM1.20276 112.485H82.7037L83.2238 110.16H0.678278L1.20276 112.485Z" fill="#231F20"/>
<path d="M33.2972 41.8464C32.8665 41.8706 32.4392 41.7579 32.0763 41.5243C30.2473 40.2007 31.3271 35.0517 31.3756 34.8355C31.3816 34.8065 31.3934 34.779 31.41 34.7546C31.4267 34.7301 31.4481 34.7092 31.4728 34.693C31.4976 34.6769 31.5253 34.6657 31.5544 34.6602C31.5834 34.6548 31.6133 34.6551 31.6422 34.6612C31.6711 34.6673 31.6986 34.679 31.723 34.6957C31.7474 34.7124 31.7683 34.7338 31.7845 34.7586C31.8006 34.7833 31.8118 34.8111 31.8172 34.8402C31.8227 34.8693 31.8224 34.8992 31.8163 34.9281C31.5122 36.3356 31.0186 40.2007 32.3452 41.1669C33.6718 42.1332 37.9469 40.0154 39.4807 39.1197C39.5304 39.0972 39.5867 39.094 39.6386 39.1106C39.6906 39.1273 39.7345 39.1626 39.762 39.2098C39.7894 39.2571 39.7983 39.3128 39.7871 39.3662C39.7758 39.4197 39.7452 39.467 39.7011 39.4991C39.4983 39.6139 35.6507 41.8464 33.2972 41.8464Z" fill="#231F20"/>
<path d="M42.3058 36.5901L39.5699 38.3511C39.1318 38.6332 39.005 39.2174 39.2867 39.656C39.5684 40.0946 40.152 40.2216 40.5901 39.9395L43.326 38.1785C43.7642 37.8965 43.891 37.3123 43.6093 36.8736C43.3276 36.435 42.744 36.3081 42.3058 36.5901Z" fill="#231F20"/>
<path d="M40.0844 40.3022C40 40.3021 39.9158 40.2932 39.8332 40.2757C39.6083 40.2269 39.4029 40.1124 39.2429 39.9468C39.083 39.7811 38.9757 39.5717 38.9347 39.345C38.8936 39.1183 38.9207 38.8845 39.0123 38.6732C39.104 38.4619 39.2563 38.2825 39.4498 38.1578L42.1868 36.393C42.4463 36.2256 42.7615 36.1683 43.0632 36.2337C43.3649 36.2991 43.6283 36.4817 43.7954 36.7415C43.9626 37.0013 44.0198 37.3169 43.9545 37.6189C43.8892 37.921 43.7068 38.1846 43.4473 38.352L40.7103 40.1168C40.5241 40.2383 40.3066 40.3027 40.0844 40.3022ZM42.817 36.6533C42.678 36.6532 42.5419 36.693 42.4248 36.768L39.6878 38.5329C39.5301 38.6336 39.4178 38.7918 39.3748 38.9741C39.3532 39.0671 39.3506 39.1636 39.3673 39.2576C39.384 39.3516 39.4195 39.4413 39.4718 39.5212C39.5712 39.6811 39.7296 39.7952 39.9125 39.8389C40.0058 39.8589 40.1021 39.8602 40.1959 39.8428C40.2897 39.8254 40.3792 39.7896 40.4591 39.7374L43.196 37.9725C43.2765 37.9214 43.3459 37.8549 43.4004 37.7767C43.4549 37.6985 43.4933 37.6102 43.5134 37.517C43.5335 37.4238 43.5349 37.3275 43.5175 37.2338C43.5001 37.14 43.4642 37.0507 43.412 36.971C43.3121 36.8124 43.1537 36.6998 42.9713 36.6577C42.9202 36.65 42.8684 36.6485 42.817 36.6533Z" fill="#231F20"/>
<path d="M45.5672 61.3747C45.9981 61.3747 46.3473 61.0251 46.3473 60.5938C46.3473 60.1625 45.9981 59.8128 45.5672 59.8128C45.1364 59.8128 44.7871 60.1625 44.7871 60.5938C44.7871 61.0251 45.1364 61.3747 45.5672 61.3747Z" fill="#231F20"/>
<path d="M22.5298 72.3169H22.4813C22.452 72.3116 22.424 72.3005 22.399 72.2843C22.3739 72.2681 22.3524 72.2471 22.3356 72.2224C22.3188 72.1978 22.307 72.17 22.301 72.1408C22.295 72.1116 22.2949 72.0815 22.3006 72.0522C22.327 71.8933 22.4592 71.2403 22.6532 70.2873C23.257 67.3047 24.3765 61.7586 24.8084 59.4069C24.8226 59.3515 24.8574 59.3036 24.9056 59.273C24.9538 59.2424 25.0119 59.2313 25.068 59.2419C25.1241 59.2526 25.1741 59.2843 25.2077 59.3305C25.2413 59.3767 25.2561 59.434 25.2491 59.4907C24.8084 61.8468 23.6977 67.3973 23.0939 70.38L22.7413 72.1448C22.7298 72.1928 22.7028 72.2356 22.6646 72.2666C22.6264 72.2977 22.579 72.3154 22.5298 72.3169Z" fill="#231F20"/>
<path d="M32.0984 75.0392C34.8246 75.0392 37.0346 72.8268 37.0346 70.0976C37.0346 67.3684 34.8246 65.1559 32.0984 65.1559C29.3721 65.1559 27.1621 67.3684 27.1621 70.0976C27.1621 72.8268 29.3721 75.0392 32.0984 75.0392Z" fill="#231F20"/>
<path d="M28.9559 67.7635L29.0969 67.4767L29.1762 67.3311C29.1907 67.2995 29.216 67.2742 29.2475 67.2596C29.279 67.245 29.3147 67.2422 29.3481 67.2517L29.5861 67.3223C29.6273 67.3387 29.6702 67.3505 29.7139 67.3576C29.7438 67.3688 29.7767 67.3688 29.8065 67.3576C29.9123 67.2826 30.0136 67.1988 30.1106 67.1193C30.1284 67.1037 30.1418 67.0836 30.1496 67.0612C30.1573 67.0388 30.1591 67.0147 30.1547 66.9914L30.1282 66.6914C30.1217 66.6519 30.1217 66.6117 30.1282 66.5722C30.1347 66.5433 30.1521 66.518 30.1767 66.5016C30.3386 66.4244 30.5108 66.3709 30.688 66.3428C30.7146 66.3391 30.7418 66.344 30.7655 66.3567C30.7892 66.3693 30.8084 66.3892 30.8202 66.4134C30.8731 66.506 30.926 66.5943 30.9745 66.6914C30.9898 66.7266 31.0151 66.7566 31.0471 66.7778C31.0792 66.7989 31.1167 66.8103 31.1551 66.8105L31.4769 66.837C31.4968 66.8391 31.5169 66.8362 31.5354 66.8285C31.5539 66.8208 31.5702 66.8085 31.5827 66.7928L31.7149 66.634C31.7546 66.5899 31.7942 66.5414 31.8339 66.5016C31.8514 66.4786 31.8764 66.4624 31.9046 66.456C31.9328 66.4495 31.9624 66.4532 31.9881 66.4663L32.4289 66.687C32.4543 66.7016 32.4742 66.7242 32.4854 66.7514C32.4966 66.7785 32.4984 66.8087 32.4906 66.837C32.4906 66.9208 32.4421 67.0002 32.4201 67.0796C32.4077 67.1173 32.3974 67.1556 32.3892 67.1944C32.3821 67.2186 32.3811 67.2442 32.3865 67.2689C32.3919 67.2936 32.4035 67.3165 32.4201 67.3355C32.4906 67.4194 32.5611 67.5032 32.6272 67.5914C32.6461 67.6173 32.6717 67.6376 32.7012 67.65C32.7307 67.6624 32.763 67.6666 32.7947 67.662L33.1208 67.6312C33.1571 67.6232 33.1949 67.6299 33.2263 67.6497C33.2576 67.6695 33.2799 67.7009 33.2883 67.737C33.3324 67.8738 33.3765 68.0106 33.4161 68.143C33.4323 68.1816 33.4326 68.2251 33.4169 68.2639C33.4012 68.3028 33.3708 68.3338 33.3324 68.3503L33.1473 68.4518C33.1022 68.4741 33.0594 68.5007 33.0195 68.5312C33.0007 68.541 32.9847 68.5555 32.9731 68.5733C32.9616 68.5911 32.9547 68.6115 32.9534 68.6327C32.9534 68.7474 32.9534 68.8577 32.9225 68.968C32.9191 68.9984 32.9239 69.0291 32.9363 69.057C32.9487 69.085 32.9682 69.1091 32.993 69.1269L33.1605 69.2593L33.2619 69.3475C33.2838 69.3688 33.2983 69.3967 33.3031 69.4269C33.3078 69.4571 33.3027 69.4881 33.2883 69.5152L33.09 69.8946C33.0777 69.9142 33.0629 69.932 33.0459 69.9476C33.0313 69.9679 33.0107 69.9831 32.9869 69.991C32.9632 69.9989 32.9376 69.9992 32.9137 69.9917L32.6316 69.9078H32.6096C32.5709 69.8924 32.5284 69.8888 32.4877 69.8975C32.4469 69.9061 32.4096 69.9266 32.3804 69.9564C32.3187 70.0137 32.2482 70.0667 32.1821 70.1196C32.1517 70.1431 32.1283 70.1744 32.1143 70.2101C32.1003 70.2459 32.0963 70.2847 32.1027 70.3226C32.1027 70.4197 32.1027 70.5167 32.1336 70.6138C32.1644 70.7109 32.1336 70.755 32.019 70.7903L31.5783 70.9182C31.5626 70.9247 31.5459 70.928 31.529 70.9279C31.5121 70.9279 31.4954 70.9245 31.4798 70.9179C31.4642 70.9114 31.4501 70.9018 31.4383 70.8897C31.4264 70.8776 31.4171 70.8633 31.4108 70.8476C31.3667 70.777 31.327 70.702 31.2874 70.627C31.2036 70.4682 31.1772 70.4505 31.0009 70.4373H30.7893C30.756 70.4335 30.7222 70.4384 30.6913 70.4515C30.6604 70.4646 30.6334 70.4856 30.613 70.5123C30.5602 70.5785 30.5117 70.6447 30.4588 70.7064C30.4301 70.7381 30.3992 70.7676 30.3662 70.7947C30.3494 70.8063 30.3294 70.8125 30.3089 70.8125C30.2885 70.8125 30.2685 70.8063 30.2516 70.7947C30.1194 70.7241 29.9828 70.6579 29.8506 70.5829L29.8021 70.5476C29.7812 70.5335 29.7656 70.5128 29.7576 70.4889C29.7497 70.465 29.7498 70.4391 29.758 70.4152C29.7845 70.3226 29.8109 70.2299 29.8418 70.1329C29.8418 70.1064 29.8418 70.0755 29.8418 70.049C29.8481 70.0254 29.8487 70.0007 29.8433 69.9768C29.8379 69.953 29.8268 69.9308 29.8109 69.9123C29.7448 69.8328 29.6743 69.7534 29.6082 69.6696C29.59 69.6457 29.5655 69.6272 29.5375 69.6163C29.5095 69.6054 29.4791 69.6025 29.4495 69.6078L29.1586 69.6387C29.0352 69.6387 28.9955 69.6387 28.9603 69.5063C28.925 69.374 28.8765 69.2372 28.8413 69.1004C28.8342 69.0843 28.8306 69.0668 28.8306 69.0492C28.8306 69.0316 28.8342 69.0142 28.8412 68.998C28.8482 68.9818 28.8585 68.9673 28.8714 68.9553C28.8844 68.9433 28.8996 68.9342 28.9162 68.9283C28.9955 68.8842 29.0793 68.8357 29.1674 68.796C29.2079 68.778 29.2425 68.749 29.2674 68.7124C29.2923 68.6757 29.3065 68.6329 29.3085 68.5886C29.3085 68.4871 29.3085 68.3856 29.3305 68.2842C29.3334 68.2635 29.3309 68.2425 29.3232 68.2231C29.3154 68.2038 29.3028 68.1868 29.2864 68.1739L29.0572 67.9841C29.0022 67.9477 28.9616 67.893 28.9427 67.8297L28.9559 67.7635ZM32.0675 68.7298C32.0841 68.6045 32.0757 68.4771 32.0427 68.3551C32.0097 68.2331 31.9528 68.1189 31.8752 68.0191C31.7977 67.9193 31.7011 67.836 31.5911 67.7739C31.4811 67.7119 31.3599 67.6723 31.2345 67.6576C30.9846 67.6324 30.7347 67.7053 30.5375 67.8608C30.3402 68.0164 30.2108 68.2425 30.1767 68.4915C30.1454 68.7417 30.2139 68.9942 30.3674 69.1941C30.5209 69.394 30.7469 69.5252 30.9965 69.5593C31.1215 69.5772 31.2488 69.5698 31.3709 69.5375C31.493 69.5053 31.6074 69.4488 31.7073 69.3714C31.8072 69.294 31.8905 69.1974 31.9524 69.0872C32.0143 68.977 32.0534 68.8554 32.0675 68.7298Z" fill="white"/>
<path d="M31.4988 71.9242C31.5296 71.8448 31.5561 71.761 31.5825 71.6816C31.609 71.6021 31.6134 71.6021 31.631 71.5624C31.6391 71.536 31.6566 71.5134 31.6801 71.4988C31.7035 71.4842 31.7315 71.4786 31.7588 71.483L31.9527 71.5139C31.9865 71.5163 32.0204 71.5163 32.0541 71.5139C32.0667 71.5153 32.0795 71.514 32.0917 71.5102C32.1038 71.5064 32.115 71.5002 32.1246 71.4918C32.1995 71.4212 32.2701 71.3462 32.3406 71.2712C32.3491 71.2557 32.3535 71.2382 32.3535 71.2205C32.3535 71.2028 32.3491 71.1853 32.3406 71.1697C32.3406 71.0903 32.3053 71.0153 32.2921 70.9359C32.2855 70.9054 32.2855 70.8738 32.2921 70.8432C32.2923 70.8319 32.2952 70.8208 32.3005 70.8108C32.3059 70.8008 32.3136 70.7923 32.323 70.7859C32.44 70.7059 32.5696 70.6462 32.7064 70.6094C32.7265 70.6023 32.7485 70.6024 32.7686 70.6096C32.7886 70.6168 32.8056 70.6308 32.8166 70.6491C32.8651 70.7153 32.9179 70.7815 32.9664 70.8521C32.9815 70.8777 33.0037 70.8984 33.0303 70.9117C33.0569 70.925 33.0867 70.9304 33.1163 70.9271H33.3763C33.3915 70.9264 33.4062 70.9221 33.4193 70.9144C33.4323 70.9067 33.4433 70.8959 33.4512 70.883L33.5438 70.7462C33.5658 70.7065 33.5923 70.6668 33.6187 70.627C33.6306 70.6074 33.6491 70.5926 33.6709 70.5853C33.6927 70.5781 33.7164 70.5788 33.7377 70.5873L34.0903 70.7153C34.1132 70.7233 34.1325 70.7393 34.1446 70.7604C34.1568 70.7814 34.1609 70.8061 34.1564 70.83C34.1564 70.8962 34.1344 70.9624 34.1256 71.0241V71.1168C34.1229 71.137 34.1251 71.1576 34.132 71.1768C34.1389 71.196 34.1503 71.2132 34.1652 71.2271C34.2269 71.2889 34.293 71.3462 34.3503 71.408C34.3685 71.4262 34.391 71.4393 34.4157 71.4463C34.4404 71.4532 34.4664 71.4537 34.4914 71.4477L34.7426 71.3904C34.7561 71.3848 34.7707 71.3821 34.7853 71.3825C34.8 71.3828 34.8144 71.3862 34.8276 71.3924C34.8409 71.3987 34.8527 71.4076 34.8623 71.4186C34.872 71.4296 34.8792 71.4426 34.8836 71.4565C34.9321 71.558 34.9806 71.6595 35.0247 71.761C35.0333 71.7751 35.0391 71.7908 35.0416 71.8072C35.044 71.8236 35.0432 71.8403 35.0391 71.8564C35.035 71.8724 35.0277 71.8875 35.0176 71.9007C35.0076 71.9138 34.995 71.9249 34.9806 71.9331L34.8484 72.0301C34.8142 72.0526 34.7818 72.0777 34.7514 72.1051C34.7385 72.1159 34.7283 72.1294 34.7214 72.1447C34.7145 72.16 34.7112 72.1766 34.7117 72.1934C34.7117 72.2816 34.7117 72.3699 34.7117 72.4581C34.7131 72.4822 34.7202 72.5056 34.7324 72.5263C34.7447 72.547 34.7618 72.5645 34.7823 72.5772L34.9277 72.6611L35.0158 72.7228C35.0358 72.7355 35.0507 72.7549 35.058 72.7774C35.0652 72.8 35.0644 72.8244 35.0555 72.8464L34.9365 73.1685L34.9101 73.2126C34.8998 73.2298 34.8848 73.2436 34.8667 73.2522C34.8487 73.2608 34.8285 73.2639 34.8087 73.2611L34.5795 73.2214C34.5474 73.2124 34.5132 73.2135 34.4817 73.2245C34.4501 73.2356 34.4228 73.256 34.4032 73.2832L34.2666 73.4288C34.2438 73.4495 34.2275 73.4763 34.2197 73.5061C34.2119 73.5358 34.2129 73.5672 34.2225 73.5964L34.2754 73.8215C34.2754 73.9009 34.2754 73.9318 34.2005 73.9671C34.0972 74.0209 33.9913 74.0695 33.8832 74.1127C33.8597 74.1253 33.8323 74.1283 33.8067 74.1208C33.7812 74.1134 33.7595 74.0962 33.7465 74.073C33.7025 74.0244 33.6672 73.9671 33.6275 73.9141C33.5879 73.8612 33.5262 73.7862 33.3807 73.795H33.2132C33.1874 73.7961 33.1623 73.8036 33.1401 73.8166C33.1178 73.8297 33.099 73.848 33.0854 73.87C33.0502 73.9274 33.0193 73.9847 32.9841 74.0377C32.967 74.0679 32.9446 74.0948 32.9179 74.1171C32.9083 74.1307 32.8944 74.1407 32.8784 74.1455C32.8624 74.1503 32.8453 74.1496 32.8298 74.1436L32.4948 74.0156C32.4784 74.0101 32.4634 74.0011 32.4508 73.9891C32.4338 73.98 32.4204 73.9655 32.4124 73.948C32.4045 73.9305 32.4025 73.9108 32.4067 73.8921C32.4067 73.8171 32.4287 73.7376 32.442 73.6626C32.4552 73.5876 32.442 73.6185 32.442 73.592C32.4435 73.5732 32.4408 73.5543 32.4339 73.5367C32.427 73.5191 32.4162 73.5033 32.4023 73.4906L32.2216 73.3229C32.2046 73.3059 32.1834 73.2937 32.1602 73.2875C32.137 73.2813 32.1126 73.2813 32.0894 73.2876L31.8646 73.3405C31.7632 73.3405 31.7324 73.3405 31.6883 73.2523L31.5561 72.9479C31.5436 72.9232 31.5412 72.8947 31.5494 72.8683C31.5576 72.8419 31.5758 72.8198 31.6001 72.8067L31.7808 72.6787C31.8118 72.6605 31.837 72.6337 31.8534 72.6017C31.8697 72.5697 31.8767 72.5337 31.8734 72.4978V72.2596C31.8734 72.243 31.8694 72.2268 31.8617 72.2122C31.8541 72.1976 31.8429 72.1851 31.8293 72.1757L31.6266 72.0478C31.5791 72.0251 31.5415 71.9859 31.5208 71.9375L31.4988 71.9242ZM34.0418 72.3654C34.0418 72.2654 34.0221 72.1664 33.9837 72.074C33.9453 71.9816 33.8891 71.8978 33.8182 71.8273C33.7474 71.7567 33.6633 71.7009 33.5708 71.6631C33.4783 71.6252 33.3793 71.606 33.2793 71.6066C33.0805 71.6111 32.8913 71.6928 32.7515 71.8344C32.6117 71.976 32.5323 72.1664 32.5301 72.3654C32.5313 72.5652 32.611 72.7564 32.7521 72.8977C32.8932 73.0389 33.0842 73.1188 33.2838 73.1199C33.3834 73.1217 33.4824 73.1034 33.5749 73.0662C33.6674 73.029 33.7515 72.9735 33.8222 72.9032C33.8929 72.8328 33.9487 72.749 33.9865 72.6566C34.0242 72.5642 34.043 72.4652 34.0418 72.3654Z" fill="white"/>
<path d="M58.9217 69.2284H47.3965V71.6815H58.9217V69.2284Z" fill="white"/>
</svg>
